<svg width="40" height="40" viewBox="0 0 40 40" fill="none" xmlns="http://www.w3.org/2000/svg">
<rect width="40" height="40" rx="10" fill="#2F2F2F"/>
<path d="M24 17.6669V20.3331M26.6669 17.6669H13.3331M25.3331 12.3331H14.6669V8.33312C14.6669 7.97955 14.8073 7.64047 15.0574 7.39046C15.3074 7.14045 15.6464 7 16 7H24C24.3536 7 24.6927 7.14045 24.9427 7.39046C25.1927 7.64047 25.3331 7.97955 25.3331 8.33312V12.3331Z" stroke="white" stroke-width="1.28" stroke-linecap="round" stroke-linejoin="round"/>
<path d="M32 29.6668V13.6668C32 13.3131 31.8596 12.974 31.6096 12.7239C31.3596 12.4738 31.0205 12.3332 30.6669 12.333H9.33312C8.59712 12.333 8 12.9301 8 13.6668V29.6668C8 30.4028 8.59712 30.9999 9.33312 30.9999H30.6669C31.4029 30.9999 32 30.4028 32 29.6668Z" stroke="white" stroke-width="1.28" stroke-linecap="round" stroke-linejoin="round"/>
</svg>
